# xmcd
#
# Track frame offsets:
#        150
#        9385
#        20213
#        35684
#        47266
#        60279
#        71335
#        82100
#        96214
#        110644
#        125089
#        137507
#        150166
#        165376
#
# Disc length: 2382 seconds
#
# Revision: 0
# Processed by: cddbd v1.5.1PL0 Copyright (c) Steve Scherf et al.
# Submitted via: ExactAudioCopy v0.95a5
#
DISCID=aa094c0e
DTITLE=Maurice Chevalier - Cocktail Hour
DYEAR=1999
DGENRE=Oldies
TTITLE0=J'ai D'La Veine (Look What I've Got
TTITLE1=Hello Beautiful
TTITLE2=The Poor Apache
TTITLE3=What Would You Do?
TTITLE4=Singing A Happy Song
TTITLE5=Mimi
TTITLE6=Oh! That Mitzi!
TTITLE7=Au Printemps, Dans Les Squar's, A Paris
TTITLE8=You Took The Words Right Out Of My Mouth
TTITLE9=Un Tout P'tit Peu
TTITLE10=II P;eurait
TTITLE11=Place Pigalle
TTITLE12=Quai De Bercy
TTITLE13=Just A Burn
EXTD=
EXTT0=
EXTT1=
EXTT2=
EXTT3=
EXTT4=
EXTT5=
EXTT6=
EXTT7=
EXTT8=
EXTT9=
EXTT10=
EXTT11=
EXTT12=
EXTT13=
PLAYORDER=
